<?xml version="1.0" standalone="no"?>
<!DOCTYPE svg PUBLIC "-//W3C//DTD SVG 20010904//EN"
 "http://www.w3.org/TR/2001/REC-SVG-20010904/DTD/svg10.dtd">
<svg version="1.0" xmlns="http://www.w3.org/2000/svg"
 width="3143.000000pt" height="3143.000000pt" viewBox="0 0 3143.000000 3143.000000"
 preserveAspectRatio="xMidYMid meet">
<metadata>
Created by potrace 1.11, written by Peter Selinger 2001-2013
</metadata>
<g transform="translate(0.000000,3143.000000) scale(0.100000,-0.100000)"
fill="#000000" stroke="none">
<path d="M12464 25521 c-75 -32 -86 -151 -18 -196 28 -18 74 -23 304 -30 96
-3 220 -8 275 -10 112 -5 339 -13 550 -20 77 -3 183 -7 235 -10 52 -2 178 -7
280 -11 102 -3 186 -7 188 -8 1 -2 25 -81 52 -177 28 -96 57 -196 65 -224 8
-27 27 -90 41 -140 14 -49 37 -128 51 -175 13 -47 26 -92 28 -100 2 -8 4 -15
5 -15 1 0 3 -7 5 -15 1 -8 19 -71 39 -140 20 -69 39 -132 41 -140 4 -20 144
-508 155 -545 17 -53 71 -237 95 -325 13 -47 26 -94 30 -106 6 -18 -2 -25 -52
-50 -241 -119 -456 -287 -682 -532 -57 -62 -166 -212 -226 -312 -106 -174
-226 -445 -264 -595 -6 -22 -19 -75 -30 -118 -66 -260 -84 -619 -45 -917 18
-141 68 -348 120 -495 51 -142 51 -134 -8 -180 -39 -30 -71 -70 -125 -160 -72
-116 -286 -540 -314 -620 l-14 -39 -150 -43 c-83 -23 -253 -70 -380 -102 -126
-33 -273 -71 -325 -85 -76 -19 -438 -107 -500 -121 -8 -2 -40 -11 -72 -19 -31
-8 -68 -18 -82 -21 -14 -3 -38 -7 -52 -10 -14 -3 -56 -13 -93 -21 -36 -9 -74
-18 -83 -20 -10 -2 -26 -6 -35 -8 -31 -8 -295 -68 -312 -71 -9 -2 -36 -8 -61
-15 -25 -7 -53 -14 -63 -16 -10 -2 -26 -5 -35 -8 -9 -3 -28 -8 -42 -10 -14 -3
-56 -13 -95 -22 -38 -8 -81 -18 -94 -20 -14 -3 -131 -30 -260 -60 -130 -30
-355 -82 -501 -115 -146 -33 -290 -66 -320 -74 -30 -8 -66 -16 -80 -19 -14 -2
-83 -19 -155 -36 -71 -17 -137 -33 -145 -35 -8 -2 -35 -8 -60 -14 -25 -5 -56
-12 -70 -15 -34 -6 -373 -87 -534 -126 -71 -18 -138 -33 -149 -35 -10 -3 -27
-7 -37 -10 -10 -3 -27 -7 -37 -9 -15 -3 -802 -198 -853 -211 -8 -3 -49 -13
-90 -25 -41 -11 -88 -22 -104 -25 -16 -3 -32 -8 -35 -10 -5 -3 -213 -59 -261
-70 -8 -2 -76 -20 -150 -41 -74 -20 -142 -38 -150 -40 -8 -2 -49 -13 -90 -24
-41 -11 -82 -22 -90 -24 -55 -14 -394 -112 -660 -192 -454 -137 -908 -284
-1210 -394 -63 -23 -140 -51 -170 -61 -30 -11 -63 -24 -72 -29 -10 -6 -22 -10
-28 -10 -11 0 -456 -174 -530 -208 -25 -11 -106 -46 -180 -77 -746 -317 -1386
-709 -1751 -1074 -230 -231 -364 -431 -442 -661 -47 -140 -52 -178 -51 -380 1
-207 19 -293 103 -505 132 -329 312 -604 566 -861 393 -399 848 -666 1509
-886 144 -47 414 -124 505 -143 184 -38 474 -91 553 -101 24 -2 52 -7 63 -9
11 -2 49 -7 85 -10 36 -3 75 -8 87 -10 12 -3 51 -8 85 -11 35 -3 74 -7 88 -9
14 -3 68 -7 120 -11 52 -3 111 -8 130 -10 240 -23 1143 -23 1370 0 19 2 76 7
125 11 50 3 108 8 130 10 43 5 126 13 215 21 30 2 71 6 90 9 19 3 55 7 80 10
25 3 54 7 65 9 11 2 49 7 85 11 36 4 74 9 85 11 18 3 42 7 135 20 20 2 47 7
60 9 26 5 184 33 235 41 17 3 37 7 45 9 8 2 31 6 50 9 102 15 448 95 640 147
182 50 448 136 605 196 217 84 483 230 581 320 17 15 66 57 110 93 43 35 81
67 84 70 3 3 70 59 150 125 236 193 664 559 890 759 19 17 91 80 160 141 69
60 170 150 225 200 99 91 150 136 192 172 20 18 150 139 367 343 157 147 811
803 911 914 50 55 100 111 112 124 21 23 72 80 147 166 l35 40 11 -29 c19 -51
170 -349 183 -362 7 -7 37 -17 67 -23 30 -6 66 -12 79 -15 14 -2 61 -9 105
-15 45 -6 92 -13 106 -15 26 -5 142 -20 220 -29 25 -3 65 -8 90 -11 25 -3 61
-7 80 -10 19 -2 69 -7 110 -11 41 -3 83 -8 93 -10 10 -2 73 -6 140 -9 67 -4
138 -8 157 -10 191 -20 1082 -27 1350 -12 114 7 164 10 330 21 96 7 242 21
340 32 30 4 66 8 80 9 118 14 146 17 164 21 12 2 46 7 76 10 30 3 57 7 60 9 3
2 34 6 70 10 36 4 74 9 85 11 11 3 36 7 55 10 62 10 334 62 385 74 65 15 79
18 86 19 4 1 37 70 74 154 37 83 70 156 74 160 4 4 30 -18 57 -50 27 -32 63
-72 79 -89 17 -17 73 -78 125 -135 107 -117 730 -743 890 -894 94 -89 204
-190 395 -365 33 -30 62 -57 65 -60 3 -4 88 -80 190 -170 102 -90 187 -166
190 -170 3 -3 55 -48 115 -100 61 -52 112 -97 115 -100 26 -27 375 -325 615
-525 66 -55 122 -102 125 -105 3 -3 57 -49 120 -101 331 -274 416 -334 585
-414 138 -66 300 -131 425 -172 58 -19 114 -38 125 -43 11 -4 29 -11 40 -13
11 -3 92 -26 180 -51 88 -26 169 -48 180 -51 11 -2 58 -14 105 -25 102 -26 81
-21 260 -59 163 -35 218 -46 305 -60 72 -12 113 -19 185 -32 30 -6 73 -12 95
-15 22 -2 67 -8 100 -14 33 -5 83 -12 110 -15 47 -6 64 -8 148 -19 17 -3 61
-8 97 -11 36 -3 79 -8 95 -10 17 -2 64 -7 105 -11 41 -3 91 -8 110 -10 19 -2
76 -6 125 -9 50 -3 115 -8 145 -10 306 -23 927 -23 1275 0 130 8 243 16 268
19 15 2 55 7 90 10 34 4 78 9 97 11 19 3 55 7 80 10 110 12 145 17 150 20 3 2
29 6 59 10 30 4 62 8 72 10 9 2 39 7 66 11 26 5 50 9 53 9 3 1 25 5 50 9 25 5
54 10 65 12 11 2 31 6 45 9 14 3 34 7 45 9 11 3 52 11 90 20 302 65 718 200
990 321 91 40 309 151 354 180 23 14 43 25 46 25 3 0 18 9 33 19 15 10 65 44
112 73 298 191 571 449 778 735 28 40 52 75 52 77 0 3 17 31 39 63 110 166
249 488 287 666 21 97 26 291 11 402 -23 167 -113 400 -209 539 -271 394 -676
722 -1333 1078 -93 50 -411 208 -500 248 -27 12 -83 38 -123 56 -126 59 -428
183 -682 281 -36 13 -81 31 -100 38 -19 8 -75 28 -125 45 -49 18 -126 45 -170
62 -119 45 -644 218 -940 309 -366 113 -488 149 -855 252 -271 77 -392 110
-630 172 -74 19 -149 40 -167 46 -18 5 -40 12 -50 14 -10 2 -65 15 -123 30
-58 15 -112 28 -120 30 -8 2 -96 24 -195 50 -99 25 -191 48 -205 51 -14 3 -33
7 -42 10 -9 3 -25 7 -35 9 -10 2 -56 14 -103 25 -47 12 -89 23 -95 24 -75 17
-342 81 -380 92 -48 13 -259 62 -300 70 -11 2 -85 20 -165 39 -122 30 -184 44
-340 80 -8 2 -46 11 -85 20 -38 9 -77 18 -85 20 -8 2 -33 8 -55 13 -22 6 -51
13 -65 16 -40 8 -200 44 -390 88 -96 22 -182 41 -190 43 -8 2 -62 14 -120 28
-58 13 -177 41 -265 61 -1105 254 -1944 459 -2275 557 -65 19 -65 19 -94 81
-16 35 -30 65 -31 68 0 3 -21 43 -44 90 -166 325 -261 481 -344 561 l-67 66
36 99 c19 55 42 124 50 154 8 30 17 62 19 70 16 57 34 135 40 175 33 211 38
276 39 440 0 109 -8 260 -18 325 -2 14 -7 52 -11 85 -4 33 -9 63 -11 66 -2 4
-6 24 -9 45 -8 49 -47 198 -79 295 -22 67 -30 88 -57 154 -32 78 -112 241
-147 299 -23 37 -42 70 -42 72 0 5 -55 84 -113 163 -189 257 -504 522 -778
655 -48 23 -56 31 -52 49 7 29 59 212 138 487 344 1199 463 1611 466 1615 4 4
149 11 419 21 91 3 212 7 270 9 58 3 177 7 265 10 88 3 210 7 270 10 61 3 184
7 275 10 275 9 308 12 334 32 64 47 61 142 -6 183 -31 19 -44 20 -228 15 -107
-4 -235 -8 -285 -10 -49 -3 -162 -7 -250 -10 -88 -3 -212 -7 -275 -10 -109 -5
-180 -7 -550 -20 -250 -9 -338 -15 -364 -24 -20 -8 -66 -59 -66 -74 0 -4 -119
-249 -372 -767 -61 -124 -150 -306 -198 -405 -48 -99 -149 -306 -225 -460 -75
-154 -157 -321 -181 -371 l-43 -92 -48 10 c-57 11 -296 13 -408 4 l-80 -7 -30
63 c-16 35 -98 205 -183 378 -85 173 -193 394 -239 490 -528 1085 -589 1207
-616 1225 -18 11 -54 17 -129 20 -56 2 -173 6 -258 10 -85 3 -209 7 -275 10
-66 3 -192 7 -280 10 -88 3 -212 8 -275 10 -511 20 -714 25 -736 16z"/>
<path d="M17885 14668 c-60 -13 -305 -58 -345 -63 -19 -3 -46 -7 -60 -10 -49
-10 -109 -19 -200 -29 -30 -4 -62 -9 -70 -11 -8 -2 -40 -7 -70 -11 -58 -7 -65
-8 -175 -19 -38 -4 -83 -9 -100 -11 -16 -2 -59 -6 -95 -9 -36 -3 -83 -7 -105
-10 -22 -2 -80 -7 -130 -10 -49 -4 -110 -8 -135 -11 -67 -6 -252 -16 -360 -19
-145 -5 -754 -5 -855 0 -49 2 -151 6 -225 10 -74 3 -166 7 -205 10 -38 2 -108
7 -155 10 -47 3 -101 8 -120 10 -19 2 -66 7 -105 10 -38 3 -81 8 -95 10 -14 2
-56 6 -95 10 -38 3 -81 7 -95 10 -14 2 -52 7 -85 10 -33 3 -67 8 -75 10 -8 3
-36 7 -63 9 -26 3 -73 10 -105 15 -31 6 -79 13 -107 16 -27 4 -65 10 -83 15
-28 7 -35 5 -47 -13 -22 -35 -187 -417 -250 -582 -31 -82 -68 -177 -81 -211
-13 -34 -50 -140 -83 -237 l-60 -177 50 -14 c40 -12 204 -54 279 -71 72 -17
291 -65 315 -69 17 -3 41 -8 55 -11 44 -9 194 -37 220 -41 14 -2 41 -7 60 -10
19 -4 45 -8 57 -9 12 -2 34 -6 50 -9 15 -3 48 -8 73 -11 25 -3 52 -8 60 -10 8
-2 38 -7 65 -10 47 -5 66 -7 153 -19 20 -3 62 -8 92 -11 30 -4 66 -8 80 -10
14 -2 57 -6 95 -10 39 -3 88 -8 110 -11 53 -6 126 -12 260 -19 61 -4 126 -8
145 -11 244 -25 1176 -25 1510 1 30 2 91 7 135 10 44 3 98 8 120 10 22 2 67 7
100 10 124 12 406 48 469 61 11 2 41 7 66 10 45 6 63 9 110 19 14 2 41 7 60
10 19 3 42 8 50 10 8 2 33 6 55 10 22 3 47 7 55 10 8 2 31 6 50 9 39 6 305 69
386 92 l52 15 -78 227 c-98 288 -183 511 -275 727 -119 278 -182 408 -196 410
-8 1 -32 -2 -54 -7z"/>
<path d="M12811 12521 c-23 -94 -95 -446 -104 -506 -8 -49 -27 -158 -31 -180
-6 -30 -15 -94 -22 -150 -3 -27 -8 -58 -10 -68 -2 -10 -6 -46 -10 -80 -3 -34
-8 -73 -9 -87 -2 -14 -6 -56 -10 -95 -3 -38 -8 -80 -10 -92 -2 -12 2 -26 8
-31 43 -35 722 -233 916 -267 19 -3 37 -8 40 -10 4 -2 26 -6 51 -10 25 -4 47
-8 50 -10 3 -2 69 -15 147 -30 79 -14 153 -28 165 -30 12 -3 40 -7 63 -10 62
-9 98 -15 125 -20 14 -3 41 -7 60 -9 19 -3 53 -8 75 -11 58 -8 103 -14 160
-21 28 -3 75 -9 105 -14 30 -5 89 -12 130 -15 41 -4 86 -8 100 -10 14 -2 65
-6 114 -10 50 -4 97 -8 105 -10 32 -6 293 -20 556 -31 428 -17 1027 -4 1410
30 48 5 189 19 205 21 8 1 44 5 80 9 219 25 492 67 666 101 43 9 93 19 109 21
145 24 580 143 780 213 l80 28 -1 64 c0 61 -11 206 -19 259 -2 14 -11 84 -20
155 -21 165 -21 164 -28 200 -3 17 -9 51 -12 77 -3 26 -14 96 -26 155 -11 59
-24 135 -30 167 -5 33 -12 62 -14 65 -1 3 -6 22 -9 41 -3 19 -13 67 -22 105
-18 77 -22 97 -23 106 -1 4 -16 3 -33 -1 -18 -5 -96 -24 -173 -43 -136 -34
-494 -109 -585 -122 -24 -4 -47 -8 -50 -10 -3 -2 -30 -6 -60 -10 -30 -3 -62
-8 -70 -10 -8 -2 -33 -7 -55 -10 -23 -3 -52 -7 -65 -10 -14 -3 -45 -7 -70 -10
-25 -3 -65 -8 -90 -11 -56 -8 -74 -10 -175 -18 -44 -4 -87 -9 -95 -11 -8 -2
-53 -7 -100 -10 -47 -4 -105 -8 -130 -10 -25 -2 -92 -7 -150 -11 -58 -3 -123
-8 -145 -9 -81 -6 -474 -18 -600 -18 -144 0 -667 13 -730 18 -22 2 -92 6 -155
10 -63 3 -131 8 -150 10 -19 2 -73 7 -120 11 -47 3 -98 7 -115 9 -45 3 -150
15 -235 25 -181 22 -180 22 -285 36 -22 3 -51 7 -65 9 -110 15 -363 56 -370
60 -3 1 -27 6 -55 9 -56 8 -380 72 -435 86 -19 5 -46 11 -60 14 -41 8 -63 13
-110 26 -25 7 -54 14 -65 16 -11 2 -77 19 -146 38 l-126 33 -22 -96z"/>
<path d="M12585 10380 c-3 -4 -3 -32 -1 -62 3 -29 8 -106 11 -171 4 -65 8
-128 10 -140 2 -12 6 -53 10 -92 8 -92 29 -240 45 -330 5 -27 12 -66 14 -85 5
-28 45 -221 61 -290 12 -55 40 -157 60 -225 23 -78 26 -81 62 -92 21 -6 83
-25 138 -43 315 -99 797 -215 1025 -246 25 -3 48 -8 51 -10 5 -3 81 -16 174
-29 23 -3 52 -7 65 -10 13 -3 42 -7 65 -10 22 -3 72 -10 110 -15 39 -5 93 -12
120 -15 28 -3 61 -7 75 -10 14 -2 57 -6 95 -10 39 -3 86 -8 105 -10 46 -6 122
-12 385 -30 487 -34 1098 -33 1545 0 36 3 95 7 131 10 36 2 91 6 122 9 31 3
83 8 115 11 31 3 127 15 212 26 205 26 219 28 260 35 19 4 49 8 65 10 17 2 41
6 55 10 14 3 36 8 50 10 252 45 646 143 787 196 50 18 52 21 72 81 41 127 110
388 125 472 3 17 8 41 11 55 16 75 40 209 51 285 3 22 9 65 14 95 8 48 15 111
25 215 2 17 6 77 10 135 3 58 8 122 11 144 5 45 20 46 -164 -7 -171 -50 -452
-118 -587 -142 -16 -3 -113 -21 -215 -39 -102 -19 -205 -37 -230 -41 -25 -3
-56 -8 -70 -10 -14 -2 -50 -6 -80 -10 -30 -4 -66 -8 -80 -10 -44 -7 -103 -14
-160 -20 -30 -3 -71 -8 -90 -10 -19 -2 -64 -7 -100 -10 -36 -3 -81 -8 -100
-10 -19 -3 -80 -7 -135 -11 -55 -3 -120 -7 -145 -9 -149 -12 -432 -19 -755
-19 -330 0 -726 10 -773 18 -9 2 -71 7 -137 11 -66 3 -136 8 -155 10 -19 2
-73 7 -120 10 -47 3 -92 8 -100 10 -8 2 -49 7 -90 10 -41 4 -88 9 -105 11 -16
2 -55 6 -85 9 -30 4 -62 8 -70 10 -8 2 -44 7 -80 10 -36 3 -72 8 -80 10 -8 3
-35 7 -60 10 -25 3 -70 10 -100 15 -30 5 -71 12 -90 14 -49 6 -292 52 -440 82
-69 14 -136 28 -150 30 -111 20 -677 171 -764 204 -15 5 -28 5 -31 0z"/>
<path d="M13265 7893 c75 -130 289 -435 371 -529 11 -12 39 -46 64 -75 251
-299 607 -612 985 -866 66 -44 145 -97 175 -118 71 -48 297 -157 380 -183 214
-67 314 -81 535 -78 99 2 191 6 205 9 14 3 43 8 65 12 118 17 313 84 450 153
122 62 601 383 681 457 6 5 30 26 54 45 114 91 214 183 375 345 220 221 403
449 567 706 43 67 42 68 -57 45 -64 -15 -369 -71 -445 -81 -25 -3 -52 -8 -60
-10 -8 -2 -42 -6 -75 -10 -33 -3 -67 -8 -75 -10 -8 -2 -46 -6 -85 -10 -38 -3
-77 -8 -85 -10 -15 -4 -135 -15 -217 -20 -23 -2 -64 -6 -90 -9 -52 -6 -139
-12 -337 -22 -71 -3 -159 -8 -195 -10 -76 -4 -664 -4 -791 0 -75 3 -267 12
-445 21 -33 2 -94 6 -135 10 -41 4 -95 8 -120 10 -25 2 -69 6 -97 9 -29 3 -77
8 -105 11 -29 3 -89 10 -133 15 -44 5 -107 12 -140 15 -33 4 -67 8 -75 10 -8
2 -42 7 -75 10 -33 4 -67 8 -75 10 -8 3 -60 11 -115 20 -55 8 -111 17 -125 20
-13 2 -42 7 -65 10 -22 4 -56 10 -75 15 -19 5 -51 11 -70 13 -34 5 -139 25
-250 49 -30 6 -108 24 -172 40 -159 38 -156 38 -123 -19z"/>
</g>
</svg>
